<?xml version="1.0" standalone="no"?>
<!DOCTYPE svg PUBLIC "-//W3C//DTD SVG 20010904//EN"
 "http://www.w3.org/TR/2001/REC-SVG-20010904/DTD/svg10.dtd">
<svg version="1.0" xmlns="http://www.w3.org/2000/svg"
 width="441.000000pt" height="414.000000pt" viewBox="0 0 441.000000 414.000000"
 preserveAspectRatio="xMidYMid meet">

<g transform="translate(0.000000,414.000000) scale(0.100000,-0.100000)"
fill="#000000" stroke="none">
<path d="M1930 4126 c-122 -35 -205 -101 -242 -195 -20 -50 -22 -73 -22 -216
0 -232 49 -482 179 -923 l48 -163 -33 -87 c-237 -628 -798 -1582 -1205 -2051
-157 -182 -299 -307 -407 -362 -94 -47 -102 -39 -73 74 52 199 254 426 567
633 57 38 121 88 143 113 l40 44 -160 -81 c-310 -157 -475 -264 -613 -396
-160 -153 -188 -290 -84 -400 175 -182 432 -150 702 87 194 170 435 494 611
822 l38 70 88 28 c476 151 1036 286 1299 313 58 6 62 5 130 -38 186 -119 394
-222 581 -288 261 -93 512 -102 672 -24 65 32 140 104 171 163 l21 42 -50 -35
c-84 -57 -139 -71 -281 -70 -96 0 -146 5 -215 23 -126 32 -261 83 -395 150
-191 95 -244 131 -192 131 10 0 96 6 192 14 278 23 456 28 577 17 179 -16 310
-71 356 -149 l22 -37 9 52 c38 226 -229 338 -722 304 -92 -7 -241 -21 -331
-31 -91 -11 -167 -18 -169 -15 -3 3 -10 1 -16 -4 -6 -5 -38 -11 -71 -15 -59
-6 -62 -5 -125 35 -249 162 -491 403 -665 665 -77 115 -179 302 -214 391 l-20
52 59 203 c85 293 109 390 125 503 48 333 -29 592 -194 650 -51 18 -70 18
-131 1z m131 -131 c52 -38 89 -84 118 -145 20 -45 26 -74 29 -157 5 -126 -10
-207 -85 -448 -30 -99 -62 -204 -71 -232 -8 -29 -19 -53 -23 -53 -5 0 -9 1 -9
3 0 1 -14 63 -30 137 -94 415 -92 746 6 895 20 31 22 31 65 0z m-46 -1557
c160 -300 366 -574 585 -780 64 -61 98 -99 89 -102 -8 -2 -54 -12 -104 -21
-244 -45 -587 -146 -945 -279 -96 -36 -176 -63 -178 -61 -3 2 12 39 33 82 84
176 229 527 320 778 61 168 145 423 145 441 0 30 17 11 55 -58z"/>
</g>
</svg>
