<?xml version="1.0" standalone="no"?>
<!DOCTYPE svg PUBLIC "-//W3C//DTD SVG 20010904//EN"
 "http://www.w3.org/TR/2001/REC-SVG-20010904/DTD/svg10.dtd">
<svg version="1.0" xmlns="http://www.w3.org/2000/svg"
 width="531.000000pt" height="470.000000pt" viewBox="0 0 531.000000 470.000000"
 preserveAspectRatio="xMidYMid meet">

<g transform="translate(0.000000,470.000000) scale(0.100000,-0.100000)"
fill="#000000" stroke="none">
<path d="M2503 4688 c-18 -6 -55 -31 -83 -57 -51 -47 -128 -173 -445 -731 -67
-118 -137 -241 -156 -272 -19 -32 -53 -90 -75 -130 -40 -69 -376 -652 -433
-748 -14 -25 -31 -56 -38 -70 -7 -14 -17 -32 -22 -40 -6 -8 -37 -62 -71 -120
-34 -58 -65 -112 -70 -120 -62 -104 -348 -605 -367 -639 -13 -25 -41 -73 -62
-106 -21 -34 -54 -90 -73 -125 -76 -140 -131 -236 -144 -251 -8 -8 -14 -19
-14 -24 0 -4 -22 -44 -49 -89 -27 -44 -93 -157 -146 -251 -54 -93 -126 -217
-159 -275 -88 -148 -96 -175 -96 -304 0 -102 2 -113 32 -173 33 -68 72 -105
149 -141 l45 -22 2432 0 c1475 0 2433 4 2437 9 3 5 18 12 33 16 44 9 128 89
157 149 25 52 26 60 23 193 l-3 138 -79 135 c-43 74 -86 146 -95 160 -10 14
-28 45 -40 70 -13 25 -42 76 -65 113 -22 38 -48 81 -56 95 -46 80 -442 769
-450 782 -5 8 -53 92 -106 185 -54 94 -103 177 -110 185 -6 8 -25 40 -41 70
-16 30 -36 66 -44 80 -9 14 -37 63 -64 110 -26 47 -71 126 -100 175 -121 207
-533 917 -585 1008 -30 53 -65 114 -77 135 -12 20 -34 59 -49 86 -14 27 -107
189 -206 360 -248 431 -266 447 -489 445 -63 -1 -128 -6 -146 -11z m249 -137
c43 -27 128 -121 128 -142 0 -5 73 -134 161 -286 89 -153 235 -404 324 -558
89 -154 179 -308 199 -342 20 -34 36 -64 36 -67 0 -2 13 -26 29 -53 16 -26
179 -307 362 -623 182 -316 360 -623 395 -682 35 -59 64 -110 64 -114 0 -4 6
-15 14 -23 7 -9 33 -52 56 -96 24 -44 62 -111 85 -150 129 -218 560 -968 573
-998 19 -45 14 -102 -13 -154 -34 -62 -59 -88 -110 -113 -41 -20 -57 -20
-2403 -20 -1966 0 -2368 2 -2395 13 -43 19 -111 95 -127 142 -23 69 -9 103
136 353 76 130 157 271 180 312 22 41 107 190 189 330 81 140 172 300 203 355
30 55 67 118 82 140 15 22 51 83 80 135 29 52 70 123 91 157 22 34 39 66 39
71 0 5 13 28 28 53 16 24 47 76 69 114 22 39 141 246 265 460 124 215 240 417
259 450 18 33 98 173 178 310 79 138 168 291 196 340 29 50 109 189 180 310
70 121 138 239 151 262 78 136 192 180 296 114z"/>
<path d="M2745 3089 c-46 -13 -100 -63 -124 -114 -24 -51 -28 -138 -9 -182 55
-125 195 -178 315 -118 81 41 123 109 123 201 0 158 -145 260 -305 213z"/>
<path d="M1857 2740 c-27 -21 -64 -84 -161 -274 -47 -92 -56 -117 -56 -162 0
-63 13 -98 54 -141 40 -44 61 -42 86 7 11 22 25 40 31 40 6 0 33 -18 59 -40
26 -22 53 -40 59 -40 11 0 33 38 45 76 5 17 -4 29 -49 64 -30 23 -55 48 -55
54 0 6 26 62 57 123 l58 113 97 0 97 0 -63 -122 c-154 -296 -224 -442 -219
-454 6 -17 304 -174 330 -174 15 0 37 35 99 162 43 89 85 164 93 167 12 3 13
-14 7 -103 -4 -59 -9 -120 -13 -136 l-5 -30 -30 25 c-16 14 -35 25 -42 25 -7
0 -19 -22 -28 -49 l-16 -50 53 -42 c49 -39 54 -47 60 -93 10 -83 24 -112 70
-155 36 -33 52 -41 84 -41 36 0 39 2 45 35 l7 35 92 -76 c51 -41 137 -112 191
-157 131 -108 123 -104 157 -71 38 36 37 58 -4 86 -18 13 -122 97 -230 188
l-197 165 0 55 c0 30 9 194 21 365 11 170 19 358 17 416 l-3 106 -39 48 c-62
75 -63 75 -419 75 -301 0 -315 -1 -340 -20z"/>
<path d="M1853 1928 c-6 -7 -128 -245 -272 -529 -228 -451 -261 -522 -261
-562 0 -57 12 -89 52 -139 23 -30 36 -38 56 -36 14 2 29 10 33 18 24 42 264
492 322 603 37 70 80 151 96 180 16 28 47 87 70 130 l40 79 77 -119 c42 -65
92 -141 110 -168 l34 -51 10 -214 c15 -343 13 -331 70 -393 49 -54 96 -77 154
-77 l26 0 -6 88 c-3 48 -11 223 -19 389 l-14 303 -67 107 c-141 226 -133 218
-311 313 -171 92 -185 97 -200 78z"/>
<path d="M3443 1556 c-33 -16 -65 -41 -90 -73 -21 -26 -82 -101 -137 -165 -79
-94 -108 -121 -147 -137 -26 -12 -53 -21 -60 -21 -28 0 -83 -47 -134 -115 -60
-79 -216 -261 -245 -285 -27 -23 -41 -57 -34 -85 14 -58 -28 -55 917 -55 l868
0 15 36 c8 20 12 45 8 57 -7 22 -73 111 -521 697 -115 149 -150 170 -292 170
-80 0 -104 -4 -148 -24z"/>
</g>
</svg>
