<?xml version="1.0" standalone="no"?>
<!DOCTYPE svg PUBLIC "-//W3C//DTD SVG 20010904//EN"
 "http://www.w3.org/TR/2001/REC-SVG-20010904/DTD/svg10.dtd">
<svg version="1.0" xmlns="http://www.w3.org/2000/svg"
 width="633.000000pt" height="640.000000pt" viewBox="0 0 633.000000 640.000000"
 preserveAspectRatio="xMidYMid meet">

<g transform="translate(0.000000,640.000000) scale(0.100000,-0.100000)"
fill="#000000" stroke="none">
<path d="M3491 5136 l-1254 -1254 -138 104 c-76 58 -141 109 -144 114 -3 5
-49 42 -103 82 -161 121 -356 272 -367 284 -5 6 -86 69 -180 140 -93 70 -195
149 -225 175 -45 38 -389 302 -434 333 -9 6 -115 -42 -329 -149 l-317 -158 0
-1577 0 -1578 97 -49 c54 -27 193 -97 310 -156 116 -59 218 -107 225 -107 8 0
54 32 104 70 49 39 160 125 248 193 87 67 209 163 271 212 62 50 172 135 245
190 73 55 154 118 179 140 26 22 136 109 246 193 110 84 222 170 248 192 27
22 56 40 65 40 10 0 577 -563 1262 -1251 l1245 -1252 57 21 c32 12 66 26 75
31 10 5 48 21 86 35 137 53 204 80 297 118 52 22 115 47 140 55 25 9 72 28
105 43 33 15 71 31 85 35 14 4 77 28 140 54 220 91 275 113 340 136 36 13 108
42 160 64 l95 40 3 2528 2 2529 -70 32 c-39 18 -75 32 -81 32 -6 0 -47 16 -92
36 -45 20 -100 42 -122 50 -22 7 -78 29 -125 49 -47 20 -116 47 -154 61 -38
13 -74 28 -80 33 -6 5 -43 20 -82 34 -88 31 -193 74 -218 88 -10 6 -40 17 -66
25 -26 8 -82 30 -124 49 -43 19 -82 35 -87 35 -9 0 -44 14 -194 80 -22 9 -51
20 -65 23 -23 6 -145 -113 -1279 -1247z m1269 -1900 c0 -742 -4 -1297 -9
-1300 -5 -3 -65 38 -134 92 -70 53 -204 157 -299 230 -95 73 -191 149 -214
168 -22 19 -126 100 -230 179 -104 79 -202 156 -219 171 -16 15 -113 90 -214
167 -102 77 -192 147 -200 154 -51 43 -117 96 -137 110 -13 8 -24 19 -24 23 0
5 60 54 133 110 72 56 157 121 187 145 30 25 133 104 229 177 96 73 182 140
190 149 9 9 93 74 186 144 94 71 186 143 206 159 49 42 51 44 238 186 90 69
191 149 225 178 33 28 67 52 73 52 10 0 13 -262 13 -1294z m-3180 -1 c0 -6
-211 -222 -470 -480 l-470 -470 0 950 0 950 470 -470 c259 -258 470 -474 470
-480z"/>
</g>
</svg>
